<?xml version="1.0" encoding="utf-8"?>
<!-- Generator: Adobe Illustrator 17.0.0, SVG Export Plug-In . SVG Version: 6.00 Build 0)  -->
<!DOCTYPE svg PUBLIC "-//W3C//DTD SVG 1.1//EN" "http://www.w3.org/Graphics/SVG/1.1/DTD/svg11.dtd">
<svg version="1.1" id="Layer_1" xmlns="http://www.w3.org/2000/svg" xmlns:xlink="http://www.w3.org/1999/xlink" x="0px" y="0px"
	 width="234px" height="234px" viewBox="0 0 234 234" enable-background="new 0 0 234 234" xml:space="preserve">
<path fill="#55555A" d="M86.985,181.613l70.912,6.142l-31.153,31.153c-5.56,5.56-14.574,5.559-20.133,0l-28.104-28.105l-5.508-6.443
	l14.53,8.914L74.561,182.21l15.746,6.531l-13.017-7.968l3.673,0.318l11.378,2.738L86.985,181.613z M68.968,158.912l11.065-12.968
	l-8.914,14.53l12.957-11.077l-11.077,12.957l14.53-8.914l-12.961,11.059l0.012-0.002l15.727-6.524l-8.588,5.258l122.408-21.705
	l16.572-16.572c5.56-5.559,5.559-14.574,0-20.133l-93.954-93.954c-5.559-5.559-14.573-5.559-20.133,0L92.406,25.072L70.045,152.075
	l5.454-8.909L68.968,158.912z M40.198,145.944l11.065,12.968l-6.531-15.746l7.704,12.585l-0.409-4.718l-2.382-9.902l1.928,4.661
	L45.2,72.278l-32.543,32.543c-5.56,5.56-5.559,14.574,0,20.133l30.011,30.011l6.444,5.509L40.198,145.944z"/>
</svg>
