<?xml version="1.0" encoding="utf-8"?>
<!-- Generator: Adobe Illustrator 17.0.0, SVG Export Plug-In . SVG Version: 6.00 Build 0)  -->
<!DOCTYPE svg PUBLIC "-//W3C//DTD SVG 1.1//EN" "http://www.w3.org/Graphics/SVG/1.1/DTD/svg11.dtd">
<svg version="1.1" id="Layer_1" xmlns="http://www.w3.org/2000/svg" xmlns:xlink="http://www.w3.org/1999/xlink" x="0px" y="0px"
	 width="234px" height="234px" viewBox="0 0 234 234" enable-background="new 0 0 234 234" xml:space="preserve">
<g opacity="0.6">
	
		<radialGradient id="SVGID_1_" cx="117.3563" cy="207.1612" r="107.368" gradientTransform="matrix(1 1.493749e-04 -2.959144e-05 0.1733 0.0061 172.3689)" gradientUnits="userSpaceOnUse">
		<stop  offset="0.3247" style="stop-color:#000000;stop-opacity:0.2"/>
		<stop  offset="1" style="stop-color:#000000;stop-opacity:0"/>
	</radialGradient>
	<path fill="url(#SVGID_1_)" d="M221.107,200.784c5.545,1.113,5.545,2.918,0,4.031l-93.71,18.81c-5.545,1.113-14.536,1.113-20.081,0
		l-93.71-18.81c-5.545-1.113-5.545-2.918,0-4.031l93.71-18.81c5.545-1.113,14.536-1.113,20.081,0L221.107,200.784z"/>
	
		<radialGradient id="SVGID_2_" cx="116.3563" cy="214.1114" r="56.8709" gradientTransform="matrix(1 1.493749e-04 -4.617017e-05 0.2703 0.0099 156.8797)" gradientUnits="userSpaceOnUse">
		<stop  offset="0.2968" style="stop-color:#000000;stop-opacity:0.4"/>
		<stop  offset="1" style="stop-color:#000000;stop-opacity:0"/>
	</radialGradient>
	<path opacity="0.8" fill="url(#SVGID_2_)" d="M221.107,200.784c5.545,1.113,5.545,2.918,0,4.031l-93.71,18.81
		c-5.545,1.113-14.536,1.113-20.081,0l-93.71-18.81c-5.545-1.113-5.545-2.918,0-4.031l93.71-18.81
		c5.545-1.113,14.536-1.113,20.081,0L221.107,200.784z"/>
	
		<radialGradient id="SVGID_3_" cx="116.8563" cy="219.4576" r="33.8761" gradientTransform="matrix(1 1.493749e-04 -5.262639e-05 0.3082 0.0116 152.1379)" gradientUnits="userSpaceOnUse">
		<stop  offset="0.2968" style="stop-color:#000000;stop-opacity:0.4"/>
		<stop  offset="1" style="stop-color:#000000;stop-opacity:0"/>
	</radialGradient>
	<path fill="url(#SVGID_3_)" d="M221.107,200.784c5.545,1.113,5.545,2.918,0,4.031l-93.71,18.81c-5.545,1.113-14.536,1.113-20.081,0
		l-93.71-18.81c-5.545-1.113-5.545-2.918,0-4.031l93.71-18.81c5.545-1.113,14.536-1.113,20.081,0L221.107,200.784z"/>
</g>
<g>
	
		<radialGradient id="SVGID_4_" cx="633.8045" cy="1584.8099" r="198.3853" gradientTransform="matrix(0.7071 0.7071 -0.7071 0.7071 734.0817 -1396.0051)" gradientUnits="userSpaceOnUse">
		<stop  offset="0.05" style="stop-color:#FFFFFF"/>
		<stop  offset="0.2804" style="stop-color:#78C8E0"/>
		<stop  offset="0.3424" style="stop-color:#68B7DD"/>
		<stop  offset="0.4416" style="stop-color:#429BDB"/>
		<stop  offset="0.6909" style="stop-color:#2B4D9F"/>
		<stop  offset="0.7599" style="stop-color:#284083"/>
		<stop  offset="0.9036" style="stop-color:#1D2855"/>
		<stop  offset="0.9717" style="stop-color:#171E45"/>
	</radialGradient>
	<path fill="url(#SVGID_4_)" d="M220.917,104.799c5.554,5.554,5.554,14.558,0,20.111l-93.852,93.852
		c-5.554,5.554-14.557,5.554-20.111,0L13.103,124.91c-5.554-5.554-5.554-14.558,0-20.111l93.852-93.852
		c5.554-5.554,14.557-5.554,20.111,0L220.917,104.799z"/>
	<g>
		<defs>
			<path id="SVGID_5_" d="M220.916,104.855c5.554,5.554,5.554,14.557,0,20.111l-93.85,93.85c-5.554,5.554-14.557,5.554-20.111,0
				l-93.851-93.85c-5.554-5.554-5.554-14.557,0-20.111l93.851-93.85c5.553-5.554,14.557-5.554,20.111,0L220.916,104.855z"/>
		</defs>
		<clipPath id="SVGID_6_">
			<use xlink:href="#SVGID_5_"  overflow="visible"/>
		</clipPath>
		<g clip-path="url(#SVGID_6_)">
			<g>
				<g>
					<polygon fill="#FFFFFF" points="44.712,71.423 52.838,165.184 53.536,165.867 53.538,62.427 					"/>
					<polygon fill="#FFFFFF" points="56.028,59.938 53.538,62.427 53.536,165.867 53.991,166.307 59.762,100.448 					"/>
					<polygon fill="#FFFFFF" points="63.949,52.13 56.028,59.938 59.762,100.448 					"/>
					<polygon fill="#FFFFFF" points="65.872,50.206 63.949,52.13 53.991,166.307 65.759,101.919 					"/>
					<polygon fill="#FFFFFF" points="76.622,39.456 65.872,50.206 65.872,101.354 					"/>
					<polygon fill="#FFFFFF" points="77.528,38.664 76.622,39.456 65.872,101.354 66.099,166.307 					"/>
					<polygon fill="#FFFFFF" points="91.899,24.406 44.966,72.435 53.36,170.137 67.004,165.796 					"/>
				</g>
				<polygon fill="#FFFFFF" points="65.759,102.259 53.991,166.307 60.328,172.643 66.382,166.589 				"/>
			</g>
			<g>
				<g>
					<polygon fill="#FFFFFF" points="160.671,187.383 66.948,179.264 66.273,178.589 169.667,178.556 					"/>
					<polygon fill="#FFFFFF" points="172.157,176.067 169.667,178.556 66.273,178.589 65.788,178.104 131.646,172.333 					"/>
					<polygon fill="#FFFFFF" points="179.965,168.146 172.157,176.067 131.646,172.333 					"/>
					<polygon fill="#FFFFFF" points="181.888,166.222 179.965,168.146 65.788,178.104 130.175,166.335 					"/>
					<polygon fill="#FFFFFF" points="192.639,155.472 181.888,166.222 130.741,166.222 					"/>
					<polygon fill="#FFFFFF" points="193.431,154.567 192.639,155.472 130.741,166.222 65.788,165.996 					"/>
					<polygon fill="#FFFFFF" points="207.689,140.196 165.163,187.596 61.418,177.859 67.016,165.139 					"/>
					<polyline fill="#FFFFFF" points="169.667,178.556 66.251,178.567 65.788,178.104 					"/>
					<polyline fill="#FFFFFF" points="169.667,178.556 66.251,178.567 65.788,178.104 					"/>
				</g>
				<polygon fill="#FFFFFF" points="129.836,166.335 65.788,178.104 59.451,171.767 65.505,165.713 				"/>
			</g>
		</g>
		<g opacity="0.4" clip-path="url(#SVGID_6_)">
			<radialGradient id="SVGID_7_" cx="59.8482" cy="172.7286" r="160.9687" gradientUnits="userSpaceOnUse">
				<stop  offset="0.1939" style="stop-color:#FFFFFF"/>
				<stop  offset="0.4635" style="stop-color:#171E45;stop-opacity:0.5"/>
			</radialGradient>
			<path fill="url(#SVGID_7_)" d="M116.976,224.064c-4.148,0-8.047-1.615-10.981-4.548l-93.622-93.622
				c-6.055-6.055-6.055-15.907,0-21.961l93.622-93.622c2.933-2.933,6.833-4.548,10.981-4.548c4.148,0,8.048,1.615,10.981,4.548
				l93.622,93.622c6.055,6.055,6.055,15.907,0,21.961l-93.622,93.622C125.024,222.448,121.124,224.064,116.976,224.064z
				 M116.976,8.447c-3.43,0-6.655,1.336-9.082,3.761l-93.622,93.622c-5.007,5.008-5.007,13.156,0,18.163l93.622,93.622
				c2.426,2.426,5.651,3.761,9.082,3.761c3.431,0,6.656-1.336,9.082-3.761l93.622-93.622c5.007-5.008,5.007-13.156,0-18.163
				l-93.622-93.622C123.632,9.783,120.407,8.447,116.976,8.447z"/>
		</g>
		<g clip-path="url(#SVGID_6_)">
			<g>
				<path fill="#FFFFFF" d="M59.762,100.448l-5.771,65.858l-0.455-0.44l0.002-103.44l2.49-2.49L59.762,100.448z M65.872,50.206
					l-1.924,1.924l-9.958,114.177l11.769-64.387L65.872,50.206z M77.528,38.664l-0.905,0.792l-10.75,61.898l0.226,64.953
					L77.528,38.664z"/>
				<linearGradient id="SVGID_8_" gradientUnits="userSpaceOnUse" x1="68.3053" y1="166.3065" x2="68.3053" y2="24.4059">
					<stop  offset="0.25" style="stop-color:#FFFFFF"/>
					<stop  offset="1" style="stop-color:#429BDB;stop-opacity:0.7"/>
				</linearGradient>
				<path fill="url(#SVGID_8_)" d="M53.538,62.427l-0.002,103.44l-0.698-0.683l-8.126-93.761L53.538,62.427z M63.949,52.13
					l-7.921,7.808l3.734,40.511L63.949,52.13z M76.622,39.456l-10.75,10.75v51.147L76.622,39.456z M91.899,24.406L77.528,38.664
					L66.099,166.307l0.905-0.51L91.899,24.406z"/>
			</g>
			<polygon fill="#FFFFFF" points="65.759,102.259 53.991,166.307 60.328,172.643 66.382,166.589 			"/>
		</g>
		<g clip-path="url(#SVGID_6_)">
			<path fill="#FFFFFF" d="M172.157,176.067l-2.49,2.49l-103.394,0.033l-0.485-0.485l65.858-5.771L172.157,176.067z
				 M130.175,166.335l-64.387,11.768l114.177-9.958l1.924-1.924L130.175,166.335z M65.788,165.996l64.953,0.226l61.898-10.75
				l0.792-0.905L65.788,165.996z"/>
			<linearGradient id="SVGID_9_" gradientUnits="userSpaceOnUse" x1="66.0756" y1="163.7892" x2="207.6886" y2="163.7892">
				<stop  offset="0.25" style="stop-color:#FFFFFF"/>
				<stop  offset="1" style="stop-color:#429BDB;stop-opacity:0.7"/>
			</linearGradient>
			<path fill="url(#SVGID_9_)" d="M160.671,187.383l-93.723-8.118l-0.675-0.675l103.394-0.033L160.671,187.383z M131.646,172.333
				l40.511,3.734l7.808-7.921L131.646,172.333z M130.741,166.222h51.147l10.75-10.75L130.741,166.222z M67.016,165.139l-0.94,0.88
				l127.355-11.453l14.258-14.371L67.016,165.139z"/>
			<polygon fill="#FFFFFF" points="129.836,166.335 65.788,178.104 59.451,171.767 65.505,165.713 			"/>
		</g>
		<radialGradient id="SVGID_10_" cx="60.4155" cy="171.6791" r="40.495" gradientUnits="userSpaceOnUse">
			<stop  offset="0.2756" style="stop-color:#FFFFFF"/>
			<stop  offset="0.3503" style="stop-color:#FFFFFF;stop-opacity:0.8969"/>
			<stop  offset="1" style="stop-color:#FFFFFF;stop-opacity:0"/>
		</radialGradient>
		<polygon clip-path="url(#SVGID_6_)" fill="url(#SVGID_10_)" points="60.416,131.184 61.085,163.174 66.75,131.683 62.407,163.384 
			72.929,133.166 63.68,163.797 78.8,135.598 64.873,164.405 84.218,138.918 65.956,165.192 89.05,143.045 66.903,166.138 
			93.177,147.877 67.69,167.221 96.497,153.295 68.297,168.414 98.929,159.165 68.711,169.687 100.412,165.344 68.92,171.01 
			100.911,171.679 68.92,172.348 100.412,178.014 68.711,173.671 98.929,184.193 68.297,174.944 96.497,190.063 67.69,176.137 
			93.177,195.481 66.903,177.22 89.05,200.313 65.956,178.166 84.218,204.44 64.873,178.953 78.8,207.76 63.68,179.561 
			72.929,210.192 62.407,179.975 66.75,211.675 61.085,180.184 60.416,212.174 59.746,180.184 54.081,211.675 58.424,179.975 
			47.902,210.192 57.151,179.561 42.031,207.76 55.958,178.953 36.613,204.44 54.875,178.166 31.781,200.313 53.928,177.22 
			27.654,195.481 53.141,176.137 24.334,190.063 52.534,174.944 21.903,184.193 52.12,173.671 20.419,178.014 51.911,172.348 
			19.921,171.679 51.911,171.01 20.419,165.344 52.12,169.687 21.903,159.165 52.534,168.414 24.334,153.295 53.141,167.221 
			27.654,147.877 53.928,166.138 31.781,143.045 54.875,165.192 36.613,138.918 55.958,164.405 42.031,135.598 57.151,163.797 
			47.902,133.166 58.424,163.384 54.081,131.683 59.746,163.174 		"/>
	</g>
</g>
</svg>
